<svg width="140" height="49" viewBox="0 0 140 49" fill="none" xmlns="http://www.w3.org/2000/svg">
<path d="M64.5512 25.68C67.1012 26.904 72.0992 30.066 70.4162 36.339C69.4982 39.756 65.0102 42.561 58.6352 42.561C54.6062 42.561 50.7302 41.031 48.2822 38.787C46.9052 37.512 47.8232 35.982 49.0982 35.982C49.5062 35.982 50.0162 36.135 50.4752 36.594C53.7902 39.858 57.5132 41.286 60.6752 41.286C63.6332 41.286 66.0812 40.062 67.2032 37.92C69.3962 33.738 65.5712 30.372 62.0012 28.74C60.1142 27.924 54.6062 25.425 53.6882 25.068C51.0872 23.946 46.8542 20.835 46.8542 16.551C46.8542 11.502 50.7302 7.575 58.9412 7.575C62.9192 7.575 66.7442 9.564 68.2742 11.298C69.6002 12.828 68.5802 14.103 67.3052 14.103C66.8462 14.103 66.2852 13.899 65.8772 13.44C62.7152 10.125 59.0432 8.799 55.9832 8.799C53.1272 8.799 50.8322 9.921 50.0162 11.808C48.2312 15.684 51.3932 19.662 54.8612 21.243C56.5952 22.008 61.6952 24.303 64.5512 25.68ZM95.7026 40.113C95.8556 40.266 96.0086 40.419 96.2126 40.572C95.7026 41.286 94.3766 41.694 92.7446 41.694C91.2656 41.694 89.6846 40.521 89.6846 38.124V37.155C88.3586 40.623 84.3806 42.255 80.9126 42.255C76.3736 42.255 72.7016 39.45 72.9056 35.013C73.2626 27.363 87.0326 23.64 84.5336 17.826H85.0946C87.9506 23.946 78.6176 28.842 77.7506 34.758C77.3426 37.818 79.8416 40.98 83.2586 40.98C86.4206 40.98 89.6846 37.869 89.6846 34.299V22.722C89.6846 20.019 88.0526 17.163 84.3296 17.163C79.5356 17.163 78.0056 20.733 76.9346 23.028C76.4756 24.048 75.8126 24.405 75.3026 24.405C74.5376 24.405 74.0276 23.64 74.4356 22.518C75.5576 19.356 78.8216 16.653 84.2786 16.653C90.0416 16.653 93.9686 19.56 93.9686 25.425V37.92C93.9686 38.481 93.8156 40.368 95.0396 40.368C95.3456 40.368 95.5496 40.266 95.7026 40.113ZM119.574 41.541V41.592C119.625 41.592 119.625 41.694 119.523 41.694H114.066C113.964 41.694 113.964 41.643 114.015 41.592C114.474 41.133 114.474 39.705 114.474 38.583V22.365C114.474 19.407 112.893 17.265 110.802 17.265C107.232 17.265 103.662 23.334 103.662 27.771V38.583C103.662 39.705 103.662 41.133 104.427 41.592C104.529 41.592 104.529 41.694 104.427 41.694H98.9702C98.8682 41.694 98.8682 41.643 98.9192 41.592C99.3782 41.133 99.3782 39.705 99.3782 38.583L99.4292 11.043C99.4292 9.972 99.4292 8.544 98.6132 8.085C98.5112 8.034 98.5622 7.932 98.6132 7.932H104.121C104.172 7.932 104.223 8.034 104.172 8.085C103.662 8.493 103.662 9.921 103.662 11.043V23.283C104.376 21.447 106.569 16.653 111.261 16.653C115.902 16.653 118.758 19.254 118.758 24.048V38.583C118.758 39.705 118.758 41.133 119.574 41.541ZM125.479 12.318C124.306 12.318 123.286 11.298 123.286 10.125C123.286 9.513 123.541 9.003 123.949 8.544C124.357 8.136 124.918 7.932 125.479 7.932C126.703 7.932 127.672 8.901 127.672 10.125C127.672 10.686 127.468 11.247 127.06 11.655C126.601 12.063 126.091 12.318 125.479 12.318ZM128.386 41.541C128.488 41.592 128.488 41.694 128.386 41.694H122.929C122.827 41.694 122.827 41.643 122.878 41.592C123.337 41.133 123.337 39.705 123.337 38.583L123.388 20.376C123.388 19.254 123.388 17.826 122.572 17.367C122.47 17.316 122.521 17.214 122.572 17.214H128.08C128.131 17.214 128.182 17.316 128.131 17.367C127.621 17.775 127.621 19.254 127.621 20.376V38.583C127.621 39.705 127.621 41.133 128.386 41.541ZM137.498 41.541C137.6 41.592 137.6 41.694 137.498 41.694H132.041C131.939 41.694 131.939 41.643 131.99 41.592C132.449 41.133 132.449 39.705 132.449 38.583L132.5 11.043C132.5 9.972 132.5 8.544 131.684 8.085C131.582 8.034 131.633 7.932 131.684 7.932H137.192C137.243 7.932 137.294 8.034 137.243 8.085C136.733 8.493 136.733 9.921 136.733 11.043V38.583C136.733 39.705 136.733 41.133 137.498 41.541Z" fill="white"/>
<path d="M7.5363 32.7044C9.82993 33.2019 21.5846 35.7456 31.9439 37.9895L35.0497 43.369L5.11957 36.8889L7.53516 32.7044H7.5363Z" fill="url(#paint0_linear_12_52)"/>
<path d="M17.3282 43.369H1.37847L3.15056 40.3001L17.3282 43.369Z" fill="url(#paint1_linear_12_52)"/>
<path d="M3.15056 40.3001L1.37847 43.369L1.90735e-06 39.6171L16.3951 11.2204L18.2147 14.2087L7.5363 32.7044H7.53539L5.1198 36.8886L3.15056 40.2991V40.3001Z" fill="url(#paint2_linear_12_52)"/>
<path d="M8.40653 33.0629H8.40767L8.49479 32.9119C8.08902 32.8241 7.76509 32.7537 7.53653 32.7042H7.53539L5.1198 36.8886L6.07829 37.0961L8.40653 33.0629Z" fill="#009E66"/>
<path d="M40.0455 39.7423V39.7435H40.0444L35.05 43.369L31.9439 37.9895L18.2147 14.2087L16.3951 11.2204L19.9868 5L40.0455 39.7423Z" fill="url(#paint3_linear_12_52)"/>
<path d="M16.3951 11.2204L15.9023 12.0739L17.2924 14.357L17.7108 15.0816L18.2147 14.2087L16.3951 11.2204Z" fill="url(#paint4_linear_12_52)"/>
<path d="M17.9485 39.6664L35.05 43.369L31.9441 37.9895C27.952 37.1248 23.7528 36.2156 19.9675 35.396L17.9485 39.6664Z" fill="url(#paint5_linear_12_52)"/>
<path d="M35.05 43.369L31.9439 37.9895L32.4177 42.7991L35.05 43.369Z" fill="#009E66"/>
<path d="M3.15056 40.3001L2.58454 43.369H1.37847L3.15056 40.3001Z" fill="#009E66"/>
<defs>
<linearGradient id="paint0_linear_12_52" x1="18.5613" y1="37.4506" x2="2.93266" y2="31.3529" gradientUnits="userSpaceOnUse">
<stop offset="1" stop-color="#009E66"/>
</linearGradient>
<linearGradient id="paint1_linear_12_52" x1="11.9564" y1="44.4733" x2="1.81064" y2="40.169" gradientUnits="userSpaceOnUse">
<stop offset="0.6632" stop-color="#009E66"/>
<stop offset="0.817308" stop-color="#009E66"/>
<stop offset="1" stop-color="#2AB986"/>
</linearGradient>
<linearGradient id="paint2_linear_12_52" x1="-4" y1="39.5" x2="26.0719" y2="13.024" gradientUnits="userSpaceOnUse">
<stop stop-color="#FFC4E1"/>
<stop offset="0.134615" stop-color="#009E66"/>
<stop offset="0.5439" stop-color="#009E66"/>
<stop offset="0.7612" stop-color="#009E66"/>
<stop offset="0.919" stop-color="#009E66"/>
<stop offset="1" stop-color="#009E66"/>
</linearGradient>
<linearGradient id="paint3_linear_12_52" x1="21.2219" y1="10.2285" x2="41.2061" y2="53.7837" gradientUnits="userSpaceOnUse">
<stop stop-color="#2AB986"/>
<stop offset="0.432692" stop-color="#009E66"/>
<stop offset="0.721154" stop-color="#007E51"/>
</linearGradient>
<linearGradient id="paint4_linear_12_52" x1="17.5" y1="12" x2="16" y2="14" gradientUnits="userSpaceOnUse">
<stop stop-color="#2AB986"/>
<stop offset="1" stop-color="#009E66"/>
</linearGradient>
<linearGradient id="paint5_linear_12_52" x1="27.3174" y1="39.3498" x2="39.0778" y2="41.3614" gradientUnits="userSpaceOnUse">
<stop offset="1" stop-color="#009E66"/>
</linearGradient>
</defs>
</svg>
